<?xml version="1.0" encoding="UTF-8" standalone="no"?>
<!-- Created with Inkscape (http://www.inkscape.org/) -->

<svg
   width="793.70081"
   height="500"
   viewBox="0 0 210 132.29167"
   version="1.1"
   id="svg1"
   xml:space="preserve"
   sodipodi:docname="trofeu.svg"
   inkscape:version="1.3.2 (091e20e, 2023-11-25, custom)"
   xmlns:inkscape="http://www.inkscape.org/namespaces/inkscape"
   xmlns:sodipodi="http://sodipodi.sourceforge.net/DTD/sodipodi-0.dtd"
   xmlns="http://www.w3.org/2000/svg"
   xmlns:svg="http://www.w3.org/2000/svg"><sodipodi:namedview
     id="namedview1"
     pagecolor="#ffffff"
     bordercolor="#000000"
     borderopacity="0.25"
     inkscape:showpageshadow="2"
     inkscape:pageopacity="0.0"
     inkscape:pagecheckerboard="0"
     inkscape:deskcolor="#d1d1d1"
     inkscape:document-units="px"
     inkscape:zoom="0.77733137"
     inkscape:cx="131.21817"
     inkscape:cy="261.79311"
     inkscape:window-width="1600"
     inkscape:window-height="829"
     inkscape:window-x="-8"
     inkscape:window-y="-8"
     inkscape:window-maximized="1"
     inkscape:current-layer="layer2" /><defs
     id="defs1" /><g
     inkscape:label="Camada 1"
     inkscape:groupmode="layer"
     id="layer1"
     style="opacity:1" /><g
     inkscape:groupmode="layer"
     id="layer2"
     inkscape:label="Camada 2"><path
       id="path2"
       style="fill:#c87137;fill-opacity:1;stroke:none;stroke-width:0.394746;stroke-linecap:round;stroke-linejoin:round;stroke-dasharray:none;stroke-opacity:1"
       d="m 82.406237,30.399864 v 2.015431 l -13.167632,0.268862 c -2.050678,-0.210092 -2.508868,1.452772 -2.418111,3.762002 -0.486872,10.471336 1.413537,19.599806 9.002131,25.528686 5.381794,3.688974 11.122598,6.328924 18.138894,5.240124 1.67261,1.669267 3.31311,3.498201 5.10549,4.56859 -0.40305,1.102283 -0.4592,2.293338 0.0155,3.45316 0.36529,0.852219 1.377271,1.520676 2.513571,1.596838 0.8694,11.575854 -6.750171,11.589765 -7.761861,14.158621 v 2.327542 l 11.297441,0.18604 7.9e-4,0.0441 1.3341,-0.022 1.33411,0.022 -0.002,-0.0441 11.29989,-0.18604 v -2.327542 c -1.01169,-2.568856 -8.63126,-2.582767 -7.76186,-14.158621 1.13629,-0.07619 2.14787,-0.744619 2.51316,-1.596838 0.47469,-1.159822 0.41856,-2.350877 0.0155,-3.45316 1.79239,-1.070389 3.43288,-2.899323 5.10549,-4.56859 7.0163,1.0888 12.7571,-1.55115 18.13889,-5.240124 7.5886,-5.92888 9.48901,-15.05735 9.00214,-25.528686 0.0908,-2.30923 -0.36744,-3.972094 -2.41812,-3.762002 l -13.16721,-0.268862 v -2.015431 l -25.41322,0.255397 z m 0.240709,5.962664 c 1.646548,8.994051 2.268226,17.885515 8.740615,27.362151 -8.829047,-1.037237 -16.999484,-3.5716 -20.331802,-17.101396 -0.417956,-3.444295 -0.720838,-7.176423 -0.332505,-10.1657 z m 47.639284,0 11.9237,0.09506 c 0.38834,2.989277 0.0855,6.721405 -0.3325,10.1657 -3.33232,13.529796 -11.50277,16.064159 -20.33181,17.101396 6.47239,-9.476636 7.09407,-18.3681 8.74061,-27.362151 z"
       inkscape:export-filename="..\trofeus\bronze.png"
       inkscape:export-xdpi="96"
       inkscape:export-ydpi="96" /><path
       style="fill:#aa4400;fill-opacity:1;stroke:none;stroke-width:0.157899;stroke-linecap:round;stroke-linejoin:round;stroke-dasharray:none;stroke-opacity:1"
       d="m 124.73014,32.281128 c 1.0693,17.485099 -3.24285,31.396513 -9.94275,38.293052 -5.7794,4.966983 -12.70944,2.78498 -15.787491,1.074896 l -0.0238,0.991407 c 3.119301,1.46527 7.384561,3.112439 13.594271,1.024014 0.11278,1.094412 -0.81136,2.184924 -1.61234,3.157502 0.71601,0.05234 1.42276,0.01153 2.33454,-0.806176 1.37193,-1.37653 0.87965,-2.883682 0.75579,-4.165205 1.62966,-1.370664 3.28336,-2.825457 5.03855,-4.635475 l 1.81388,0.06719 2.55287,-3.694943 -1.94825,-0.134364 c 4.97003,-7.304415 7.91741,-16.220803 8.76711,-27.108115 l 1.64592,0.0195 0.0672,-3.846454 -1.44944,-0.06884 -0.095,-1.669689 -5.77825,0.02375 z"
       id="path4"
       sodipodi:nodetypes="ccccccccccccccccccc" /><rect
       style="fill:#aa4400;fill-opacity:1;stroke:none;stroke-width:0.153938;stroke-linecap:round;stroke-linejoin:round;stroke-dasharray:none;stroke-opacity:1"
       id="rect6"
       width="43.066853"
       height="1.7506613"
       x="82.53862"
       y="30.73399" /><rect
       style="fill:#c87137;fill-opacity:1;stroke:none;stroke-width:0.394746;stroke-linecap:round;stroke-linejoin:round;stroke-dasharray:none;stroke-opacity:1"
       id="rect4"
       width="52.871948"
       height="5.1304317"
       x="79.939148"
       y="25.854252"
       rx="2.3684821"
       ry="2.3684821" /><rect
       style="fill:#aa4400;fill-opacity:1;stroke:none;stroke-width:0.158182;stroke-linecap:round;stroke-linejoin:round;stroke-dasharray:none;stroke-opacity:1"
       id="rect7"
       width="1.90016"
       height="3.8139799"
       x="77.750862"
       y="32.631439"
       transform="matrix(1,0,0.08455848,0.99641852,0,0)" /><path
       style="fill:#aa4400;fill-opacity:1;stroke:none;stroke-width:0.157899;stroke-linecap:round;stroke-linejoin:round;stroke-dasharray:none;stroke-opacity:1"
       d="m 91.435117,63.795955 c 0.555724,1.116345 1.425472,2.232689 2.422702,3.349034 L 91.95766,67.2875 c -1.417659,-1.567919 -1.908532,-2.546071 -2.683977,-3.705309 z"
       id="path7"
       sodipodi:nodetypes="ccccc" /><path
       style="fill:#aa4400;fill-opacity:1;stroke:none;stroke-width:0.157899;stroke-linecap:round;stroke-linejoin:round;stroke-dasharray:none;stroke-opacity:1"
       d="m 101.60097,76.788304 9.83334,-0.09501 c -0.44878,3.316151 -0.28059,6.612044 2.71349,10.241183 1.08769,1.228373 4.56457,2.423083 4.94652,4.188155 l -0.0118,2.054548 -2.23269,-0.04753 0.0475,-1.805154 c -0.0482,-0.554217 0.0186,-1.108426 -1.37762,-1.662643 -1.4083,-0.539169 -6.78425,-3.166021 -6.36553,-11.733485 l -7.31562,0.285024 z"
       id="path8"
       sodipodi:nodetypes="ccccccccccc" /><path
       style="fill:#deaa87;fill-opacity:1;stroke:none;stroke-width:0.157899;stroke-linecap:round;stroke-linejoin:round;stroke-dasharray:none;stroke-opacity:1"
       d="m 96.518049,91.394583 c 3.518871,-2.198046 5.259391,-5.937335 6.793071,-9.855886 l -0.095,9.928338 c -2.23269,-0.06332 -4.465381,-0.0091 -6.698061,-0.07248 z"
       id="path9"
       sodipodi:nodetypes="cccc" /><path
       style="fill:#deaa87;fill-opacity:1;stroke:none;stroke-width:0.157899;stroke-linecap:round;stroke-linejoin:round;stroke-dasharray:none;stroke-opacity:1"
       d="m 84.959108,34.430912 5.777549,0.134357 C 91.321108,43.864711 91.857596,61.107712 106.59133,72.32088 89.690253,67.674266 84.585587,43.093534 84.959108,34.430912 Z"
       id="path10"
       sodipodi:nodetypes="cccc" /><path
       style="fill:#aa4400;fill-opacity:1;stroke:none;stroke-width:0.157899;stroke-linecap:round;stroke-linejoin:round;stroke-dasharray:none;stroke-opacity:1"
       d="m 81.06262,28.057133 c 0.345957,-0.750846 0.700488,-1.550293 1.746703,-1.469581 h 0.705396 l -0.01679,1.494772 z"
       id="path12"
       sodipodi:nodetypes="ccccc" /><rect
       style="fill:#353b4b;fill-opacity:1;stroke:none;stroke-width:0.157899;stroke-linecap:round;stroke-linejoin:round;stroke-dasharray:none;stroke-opacity:1"
       id="rect12"
       width="33.205296"
       height="18.669073"
       x="90.057503"
       y="92.996933"
       ry="1.5789882" /><rect
       style="fill:#c87137;fill-opacity:1;stroke:none;stroke-width:0.157899;stroke-linecap:round;stroke-linejoin:round;stroke-dasharray:none;stroke-opacity:1"
       id="rect13"
       width="23.704496"
       height="8.7882395"
       x="94.760391"
       y="96.939774"
       ry="1.5789882" /><rect
       style="fill:#262d37;fill-opacity:1;stroke:none;stroke-width:0.157899;stroke-linecap:round;stroke-linejoin:round;stroke-dasharray:none;stroke-opacity:1"
       id="rect14"
       width="39.333309"
       height="4.0378394"
       x="86.827225"
       y="109.57582"
       ry="1.5789882" /><path
       style="fill:#deaa87;fill-opacity:1;stroke:none;stroke-width:0.157899;stroke-linecap:round;stroke-linejoin:round;stroke-dasharray:none;stroke-opacity:1"
       d="m 95.828039,102.2127 10e-4,-3.63406 c 0.11157,-0.60817 0.48075,-0.70114 0.90258,-0.68881 h 7.838161 c -4.581351,0.38565 -7.422941,2.38785 -8.741931,4.32287 z"
       id="path14"
       sodipodi:nodetypes="ccccc" /><path
       style="fill:#aa4400;fill-opacity:1;stroke:none;stroke-width:0.158863;stroke-linecap:round;stroke-linejoin:round;stroke-dasharray:none;stroke-opacity:1"
       d="m 100.7466,105.71017 c 6.40851,-0.92885 13.14227,-1.77484 14.29966,-8.76755 h 2.0246 c 0.92192,0.0622 1.42729,0.86104 1.44914,1.87745 l -0.0467,5.18142 c 0.0497,1.32641 -1.04093,1.76423 -1.67333,1.72715 z"
       id="path15"
       sodipodi:nodetypes="ccccccc" /><path
       style="fill:#505767;fill-opacity:1;stroke:none;stroke-width:0.157899;stroke-linecap:round;stroke-linejoin:round;stroke-dasharray:none;stroke-opacity:1"
       d="m 91.055084,98.29362 0.02375,-3.75282 c 0.0404,-0.40591 0.300463,-0.63091 0.878824,-0.5938 l 7.648141,-0.0238 c -4.07022,0.59951 -6.82319,2.12465 -8.550713,4.37038 z"
       id="path16"
       sodipodi:nodetypes="ccccc" /><path
       style="fill:#2b2d34;fill-opacity:1;stroke:none;stroke-width:0.157899;stroke-linecap:round;stroke-linejoin:round;stroke-dasharray:none;stroke-opacity:1"
       d="m 121.30392,93.065058 c 0.76714,-0.04484 1.52186,-0.02053 1.98184,1.645932 l -0.0672,14.91413 h -1.98183 z"
       id="path17"
       sodipodi:nodetypes="ccccc" /><path
       style="fill:#181b20;fill-opacity:1;stroke:none;stroke-width:0.157899;stroke-linecap:round;stroke-linejoin:round;stroke-dasharray:none;stroke-opacity:1"
       d="m 124.27667,113.51321 -0.0588,-3.77053 c 0.67953,-0.0623 1.50659,0.15775 1.7215,0.95733 0.13163,0.58504 0.17931,1.18686 0,1.78029 -0.12884,0.50378 -0.4553,0.77634 -0.87334,0.94893 z"
       id="path18"
       sodipodi:nodetypes="cccccc" /><path
       style="fill:#aa4400;fill-opacity:1;stroke:none;stroke-width:0.169442;stroke-linecap:round;stroke-linejoin:round;stroke-dasharray:none;stroke-opacity:1"
       d="m 125.97053,25.876316 c 0.95515,0.195133 3.72786,3.163828 0.15152,5.228814 l 4.84109,-0.01831 c 0.84653,-0.158284 1.3313,-0.725545 1.70777,-1.473411 0.29188,-0.638306 0.21884,-1.629751 -0.0353,-2.291289 -0.72002,-1.403525 -1.69721,-1.370826 -2.02721,-1.399065 z"
       id="path11"
       sodipodi:nodetypes="ccccccc" /></g></svg>
