<?xml version="1.0" encoding="UTF-8" standalone="no"?>
<!-- Created with Inkscape (http://www.inkscape.org/) -->

<svg
   width="210mm"
   height="297mm"
   viewBox="0 0 210 297"
   version="1.1"
   id="svg1"
   xml:space="preserve"
   inkscape:version="1.3.2 (091e20e, 2023-11-25, custom)"
   sodipodi:docname="BART_VETOR (1).svg"
   xmlns:inkscape="http://www.inkscape.org/namespaces/inkscape"
   xmlns:sodipodi="http://sodipodi.sourceforge.net/DTD/sodipodi-0.dtd"
   xmlns="http://www.w3.org/2000/svg"
   xmlns:svg="http://www.w3.org/2000/svg"><sodipodi:namedview
     id="namedview1"
     pagecolor="#ffffff"
     bordercolor="#000000"
     borderopacity="0.25"
     inkscape:showpageshadow="2"
     inkscape:pageopacity="0.0"
     inkscape:pagecheckerboard="0"
     inkscape:deskcolor="#d1d1d1"
     inkscape:document-units="mm"
     inkscape:zoom="0.77733135"
     inkscape:cx="453.47457"
     inkscape:cy="556.39078"
     inkscape:window-width="1600"
     inkscape:window-height="829"
     inkscape:window-x="-8"
     inkscape:window-y="-8"
     inkscape:window-maximized="1"
     inkscape:current-layer="layer2"
     showgrid="false" /><defs
     id="defs1" /><g
     inkscape:groupmode="layer"
     id="layer2"
     inkscape:label="VETOR"><g
       id="g51"
       transform="translate(-4.0077684,2.1248322)"><path
         style="display:inline;fill:#fad92b;fill-opacity:1;stroke:#000000;stroke-width:1;stroke-linecap:round;stroke-linejoin:round;stroke-dasharray:none;stroke-opacity:1"
         d="m 64.502431,202.05146 c 2.209365,-6.69895 5.859845,-12.55551 9.988248,-19.25446 l 9.62723,5.05429 c -3.144516,5.28975 -6.854845,10.3909 -8.664506,16.12561 -3.770664,0.0881 -7.180308,0.1286 -10.950972,-1.92544 z"
         id="path5"
         sodipodi:nodetypes="ccccc" /><path
         style="fill:#ffffff;stroke:#000000;stroke-width:1;stroke-linecap:round;stroke-linejoin:round;stroke-dasharray:none;stroke-opacity:1"
         d="m 138.07236,129.93775 c -2.44466,4.16098 -7.34438,8.99754 -9.92157,12.59384 -6.48859,-1.11227 -12.43045,-2.91593 -18.46529,-6.29693 l 7.8286,-11.7429 z"
         id="path22"
         sodipodi:nodetypes="ccccc" /><path
         id="path10"
         style="fill:#e87442;fill-opacity:1;stroke:#000000;stroke-width:1.00396;stroke-linecap:round;stroke-linejoin:round"
         d="m 174.8614,159.58289 c 0,5.97787 -1.57956,10.48208 -1.9307,10.6151 -1.34749,0.51046 -3.73393,-5.99413 -4.49543,-12.42459 -0.70061,-5.91631 1.58315,-10.40632 4.2995,-9.01441 1.3584,0.69607 2.12663,4.84603 2.12663,10.8239 z"
         sodipodi:nodetypes="sssss"
         transform="matrix(1,0,-0.50251652,0.86456761,0,0)" /><path
         style="display:inline;fill:#fad92b;fill-opacity:1;stroke:#000000;stroke-width:1;stroke-linecap:round;stroke-linejoin:round;stroke-dasharray:none;stroke-opacity:1"
         d="m 70.442907,139.49591 c 7.532949,-1.27648 14.930407,0.15687 22.142627,5.29498 4.584129,-3.85089 5.306073,-7.70179 6.859399,-11.55268 -8.062804,-5.53372 -16.125608,-6.89099 -24.188412,-7.34077 l -5.896678,0.24068 z"
         id="path3"
         sodipodi:nodetypes="cccccc" /><path
         id="path11"
         style="display:inline;fill:#e87442;fill-opacity:1;stroke:#000000;stroke-width:0.865472;stroke-linecap:round;stroke-linejoin:round"
         d="m 137.33938,159.02977 c -2.67453,5.61993 -6.20352,10.17579 -7.8822,10.17579 -1.67868,-1e-5 -1.2324,-4.97705 1.44213,-10.59698 2.67453,-5.61992 6.56452,-9.75458 8.24321,-9.7546 1.67869,-1e-5 0.8714,4.55585 -1.80314,10.17579 z"
         sodipodi:nodetypes="sssss" /><path
         style="display:inline;fill:#fad92b;fill-opacity:1;stroke:#000000;stroke-width:1;stroke-linecap:round;stroke-linejoin:round;stroke-dasharray:none;stroke-opacity:1"
         d="m 132.85575,151.62885 c 6.90922,2.39088 13.42791,4.94455 21.54093,5.98115 3.51109,0.54938 4.27475,-1.73174 8.70625,-3.33551 2.40027,-0.664 4.52488,1.46445 2.16988,3.65901 l -2.31879,1.78696 c -0.60613,0.62221 -0.68162,0.99396 0.29782,1.27641 2.02806,0.006 4.65178,0.16699 5.95655,1.12749 0.87997,0.4985 1.57624,2.37777 -0.21274,3.29737 -1.06144,0.48564 -3.34402,0.41176 -5.48853,0.46801 -0.4052,0.075 -1.00362,0.13083 -0.21273,1.19131 0.88713,1.18015 1.78854,1.89805 2.29753,3.31864 0.23711,0.67366 0.19566,1.51751 -0.78712,2.21244 -1.1365,0.49466 -2.01878,0.24939 -2.78681,-0.46802 l -1.2764,-1.14876 c -0.61098,-0.59495 -1.29308,-0.26534 -1.95715,-0.17019 -1.92965,0.31897 -3.9418,-0.0495 -6.04164,-1.14876 -0.97832,-0.74263 -2.17061,-1.31301 -3.80793,-0.95729 -1.227,0.39993 -15.94452,-3.76385 -20.31607,-6.91386 0.12044,-4.44912 2.46738,-7.07656 4.23695,-10.1764 z"
         id="path4"
         sodipodi:nodetypes="ccccccccccccccccccc" /><ellipse
         style="display:inline;fill:#2d93d2;fill-opacity:1;stroke:#000000;stroke-width:1.05614;stroke-linecap:round;stroke-linejoin:round;stroke-dasharray:none;stroke-opacity:1"
         id="path13"
         cx="226.28885"
         cy="11.507068"
         rx="2.2835433"
         ry="12.297749"
         transform="matrix(0.57776264,0.81620483,-0.85680939,0.51563326,0,0)" /><path
         style="display:inline;fill:#fad92b;fill-opacity:1;stroke:#000000;stroke-width:1;stroke-linecap:round;stroke-linejoin:round;stroke-dasharray:none;stroke-opacity:1"
         d="m 114.26922,189.13979 c 5.12628,6.25516 1.93696,9.37684 0.98889,15.30387 l 9.59501,1.75954 c 1.53384,-1.91967 8.3767,-15.69109 -0.71172,-22.38206 z"
         id="path6"
         sodipodi:nodetypes="ccccc" /><path
         style="display:inline;fill:#2d93d2;fill-opacity:1;stroke:#000000;stroke-width:1;stroke-linecap:round;stroke-linejoin:round;stroke-dasharray:none;stroke-opacity:1"
         d="m 80.026337,163.90356 c -3.051189,1.85486 -3.306813,4.82794 -1.825427,8.49583 -2.441387,2.07362 -4.226409,4.1604 -6.576236,6.79199 -0.753371,0.99426 -1.639745,1.64936 -0.487154,3.27095 0.762123,1.30951 12.294506,10.26925 23.31624,11.57208 0.81548,0.0352 1.545866,0.0795 2.254978,-0.80839 l 2.446437,-4.48868 c 2.223655,0.30362 3.927845,0.0374 5.892725,-0.0213 1.49588,2.53862 2.76376,5.09851 4.76523,7.63714 6.64875,-6.91184 13.91912,-10.50834 21.52865,-12.29601 -2.733,-2.86565 -6.04594,-6.18169 -8.3817,-7.31804 z"
         id="path12"
         sodipodi:nodetypes="cccccccccccc" /><path
         style="display:inline;fill:#e87442;fill-opacity:1;stroke:#000000;stroke-width:1;stroke-linecap:round;stroke-linejoin:round;stroke-dasharray:none;stroke-opacity:1"
         d="m 78.07327,160.44375 c -2.56328,3.69534 -0.563702,5.81502 1.999696,8.04134 10.410306,9.25521 22.599014,15.48173 42.089414,10.24647 4.23989,-1.05322 4.6503,-4.76384 4.11635,-11.56542 0.99276,0.93715 1.98551,1.57291 2.97827,1.82951 0.63934,-8.45105 3.90388,-15.20343 9.99848,-20.12461 -3.50302,-1.35077 -6.74647,-1.87841 -10.65368,-1.87205 -0.24252,-0.75648 -0.73046,-1.56631 -1.87633,-1.61678 -7.17438,-0.92737 -13.57241,-5.2687 -20.23098,-7.7435 -2.56812,-4.4657 -4.99666,-7.01899 -7.680311,-8.65587 -2.092109,7.11552 -5.406236,13.09536 -11.631373,18.67776 0.492796,0.65842 1.497526,1.09176 3.016283,1.61464 -4.310627,2.72082 -6.64921,3.50547 -12.125819,11.16851 z"
         id="path9"
         sodipodi:nodetypes="ccccccccccccc" /><path
         style="display:inline;fill:#fad92b;fill-opacity:1;stroke:#000000;stroke-width:1;stroke-linecap:round;stroke-linejoin:round;stroke-dasharray:none;stroke-opacity:1"
         d="M 108.81928,121.07699 C 106.01183,106.54514 101.41361,95.37097 96.836382,84.157454 96.178507,82.364398 96.596079,81.598636 98.623344,82.37049 l 3.148456,1.616776 c 1.23165,0.494567 0.97106,0.03777 0.68397,-1.255129 l -0.68138,-2.941955 c -0.24306,-1.316441 0.61521,-1.866989 1.55037,-1.333993 l 3.0769,2.818409 c 0.66908,0.647852 1.28521,0.832344 1.31315,-0.563431 l 0.14118,-4.424861 c 0.0304,-1.324563 0.69135,-1.471945 1.5104,-0.936029 l 2.99955,2.925401 c 0.98073,1.215269 0.93094,-0.05303 0.89561,-0.755517 l 0.0679,-3.631516 c 0.26923,-0.999776 1.03591,-0.93016 1.51191,-0.410423 l 2.50252,2.978272 c 0.52652,0.767902 1.0263,1.291362 1.2764,-0.468016 l 0.27656,-3.191004 c 0.34431,-1.131606 1.1731,-1.040708 1.72314,-0.425469 l 1.74441,2.893179 c 0.87151,1.482782 1.16462,0.363753 1.37138,-0.638202 l 0.72632,-3.005773 c 0.29239,-1.516881 1.23646,-1.828136 1.98679,-0.100143 l 1.45176,2.730292 c 0.25582,0.304659 0.41362,1.085424 0.93086,0.12034 l 1.28157,-3.668901 c 0.24511,-0.786149 1.48588,-1.583058 2.12217,-0.07521 l 1.02112,2.722994 c 0.44717,0.998189 0.86929,0.844338 1.2764,0 l 1.40405,-3.191007 c 0.26037,-0.66369 0.95307,-1.128579 1.31895,0.08509 l 1.21258,3.871755 c 0.15348,0.414044 0.69712,0.860507 1.06366,0.06382 l 1.46787,-2.722991 c 0.40927,-0.82795 1.04874,-0.999493 1.34022,-0.08509 1.33197,6.950463 2.50281,14.827898 3.97812,21.635018 1.22871,0.281006 4.20425,0.975413 3.87175,4.637593 l -1.40404,14.933911 c 1.9543,0.27474 2.97689,1.04056 3.3442,4.26259 0.52773,2.07677 1.92535,4.85532 2.95272,6.62937 1.01838,1.62913 2.25258,3.96006 -1.61678,6.29692 -4.16516,2.87708 -13.76701,3.51337 -34.67559,-0.51056 -4.68862,-1.10292 -6.09,5.52712 -2.51026,7.7435 2.82595,1.96531 7.94045,3.49662 13.06185,3.3612 1.19612,-0.13473 1.58925,-0.92894 2.27625,-1.48914 0.93364,0.18675 1.24294,1.14677 1.44659,2.06352 0.23265,1.17546 -0.6783,2.2421 -3.21228,2.74426 -0.93858,0.0993 -1.59267,0.19855 -2.93572,0.29783 -0.35909,0.68084 -0.74413,1.411 -1.65933,3.14846 -0.50152,0.47309 -1.25939,0.74476 -2.5528,0.59565 -6.43913,-0.70563 -11.41302,-3.57482 -13.31714,-5.23325 -1.34131,-1.3615 -2.01954,-3.31865 -2.12732,-4.97797 0.86054,-2.03707 2.36009,-4.74776 2.68044,-7.4502 -2.34202,-0.40532 -3.7851,-1.82051 -4.08449,-4.33524 -0.3935,-2.30216 0.82688,-3.65097 2.96299,-4.48907 z"
         id="path2"
         sodipodi:nodetypes="cccccccccccccccccccccccccccccccccccccccccccccccccccccccc" /><path
         style="display:inline;fill:#2d93d2;fill-opacity:1;stroke:#000000;stroke-width:1;stroke-linecap:round;stroke-linejoin:round;stroke-dasharray:none;stroke-opacity:1"
         d="m 77.264881,205.16038 c 0.673047,2.18125 1.578332,2.73683 1.616776,9.36029 -11.342483,3.18689 -26.41791,4.99974 -29.740172,-0.12764 1.825549,-5.44067 8.010647,-9.25573 13.572411,-11.95564 z"
         id="path16"
         sodipodi:nodetypes="ccccc" /><path
         style="display:inline;fill:#ffffff;stroke:#000000;stroke-width:1;stroke-linecap:round;stroke-linejoin:round;stroke-dasharray:none;stroke-opacity:1"
         d="m 77.198338,200.12601 c 3.617729,2.14316 2.079174,5.15574 -0.02618,5.91946 -11.343131,2.85209 -19.315155,-2.95326 -14.110792,-6.59468 0.759931,-0.44042 1.604956,-0.61433 2.364887,-0.67647 -0.4531,3.54578 7.229382,3.78447 9.662475,3.69468 0.833078,-0.18872 0.993107,-0.3582 1.387564,-0.8989 z"
         id="path14"
         sodipodi:nodetypes="ccccccc" /><ellipse
         style="fill:#ffffff;stroke:#000000;stroke-width:0.897498;stroke-linecap:round;stroke-linejoin:round;stroke-dasharray:none;stroke-opacity:1"
         id="path17"
         cx="73.861137"
         cy="210.60635"
         rx="1.8382143"
         ry="2.3487751" /><path
         style="fill:#2d93d2;fill-opacity:1;stroke:#000000;stroke-width:1;stroke-linecap:round;stroke-linejoin:round;stroke-dasharray:none;stroke-opacity:1"
         d="m 113.68489,205.84113 c -2.32831,2.14048 -4.32593,6.01839 -4.16958,9.70066 7.99769,5.37291 17.75204,4.85996 28.42122,3.99939 -0.92514,-7.82853 -5.49342,-9.80809 -8.76463,-12.76402 z"
         id="path18"
         sodipodi:nodetypes="ccccc" /><path
         style="display:inline;fill:#ffffff;stroke:#000000;stroke-width:1;stroke-linecap:round;stroke-linejoin:round;stroke-dasharray:none;stroke-opacity:1"
         d="m 115.48218,202.5702 c 2.58139,2.69918 6.18974,2.88084 9.75415,2.18599 1.14615,-0.38327 1.2985,-1.68512 1.5955,-2.61662 1.0573,0.69987 4.19759,2.05434 2.52058,4.94058 -3.20411,3.78178 -13.61733,2.22924 -15.23173,0.76583 -3.81938,-2.27888 -0.52181,-5.77725 1.3615,-5.27578 z"
         id="path15"
         sodipodi:nodetypes="cccccc" /><ellipse
         style="fill:#ffffff;stroke:#000000;stroke-width:1;stroke-linecap:round;stroke-linejoin:round;stroke-dasharray:none;stroke-opacity:1"
         id="path19"
         cx="116.11005"
         cy="212.81879"
         rx="1.9996969"
         ry="2.4677107" /><path
         style="fill:#ffffff;stroke:#000000;stroke-width:1;stroke-linecap:round;stroke-linejoin:round;stroke-dasharray:none;stroke-opacity:1"
         d="m 109.64295,213.83992 c -0.51045,1.18086 -0.45072,2.6256 -0.51056,4.59504 6.87311,4.991 25.88332,6.15745 29.05943,2.12734 0.16092,-1.20549 -0.37711,-2.49607 -0.85094,-3.61647 -8.61577,4.25291 -21.87583,0.82025 -27.69793,-3.10591 z"
         id="path20"
         sodipodi:nodetypes="ccccc" /><path
         style="fill:#ffffff;stroke:#000000;stroke-width:1;stroke-linecap:round;stroke-linejoin:round;stroke-dasharray:none;stroke-opacity:1"
         d="m 49.907327,212.64861 c 1.980688,5.1944 18.725634,4.36277 28.974331,0.12764 l 0.127639,3.78666 c -9.528784,4.56767 -23.161561,5.5986 -29.059423,2.59535 -1.396777,-1.21374 -1.202982,-3.64441 -0.978574,-4.59504 z"
         id="path21"
         sodipodi:nodetypes="cccccc" /><path
         style="fill:#c6dbef;fill-opacity:1;stroke:#000000;stroke-width:1;stroke-linecap:round;stroke-linejoin:round;stroke-dasharray:none;stroke-opacity:1"
         d="m 59.327795,154.51702 c -0.414154,0.72875 -1.1392,2.55752 0.996198,3.2668 5.453414,1.00623 9.502785,0.3689 14.445638,-1.58204 1.805686,-1.02242 1.306097,-2.73894 0.382921,-3.24919 z"
         id="path27"
         sodipodi:nodetypes="ccccc" /><path
         id="rect22"
         style="display:inline;fill:#de2023;fill-opacity:1;stroke:#000000;stroke-linecap:round;stroke-linejoin:round"
         d="m 53.190439,122.62682 c 5.620229,-0.50086 11.207469,-1.05671 15.884929,-3.12885 l 5.655996,33.93598 c -4.131686,2.04408 -9.707456,3.80704 -14.922205,2.04579 z"
         sodipodi:nodetypes="ccccc" /><path
         style="display:inline;fill:#fad92b;fill-opacity:1;stroke:#000000;stroke-width:1;stroke-linecap:round;stroke-linejoin:round;stroke-dasharray:none;stroke-opacity:1"
         d="m 53.183427,124.6194 c -1.351619,1.09987 -3.250213,3.11044 -0.723297,7.2755 -0.658485,1.86309 -0.11102,3.29548 0.808389,4.59504 -0.058,1.55854 -0.960505,3.45851 2.425163,4.50996 1.13301,0.18527 1.420713,-0.23325 1.786964,-0.59566 0.661957,-1.06169 0.571551,-2.18607 -0.12764,-3.36119 0.659995,-1.68784 0.671903,-3.1905 -0.25528,-4.42486 0.139003,-1.54043 -0.145229,-3.07131 -1.148763,-4.16958 -1.236634,-0.68954 -1.418087,-1.24802 -1.574228,-1.82951 l -0.255282,-2.04225 z"
         id="path8"
         sodipodi:nodetypes="ccccccccccc" /><path
         style="display:inline;fill:#c6dbef;fill-opacity:1;stroke:#000000;stroke-width:1;stroke-linecap:round;stroke-linejoin:round;stroke-dasharray:none;stroke-opacity:1"
         d="m 53.011439,121.66258 c -0.583559,1.03757 -0.521012,2.21815 0.991295,2.52866 5.653488,0.0575 11.112605,-1.64474 14.726652,-2.97842 1.878509,-0.96817 1.915033,-2.05697 1.098107,-3.15893 -0.520847,-0.59353 -0.990742,-0.52468 -1.474172,-0.63179 l 0.225639,1.26358 c -5.817885,2.6618 -10.170709,2.96306 -15.567521,2.9769 z"
         id="path23"
         sodipodi:nodetypes="ccccccc" /><path
         style="display:inline;fill:#c6dbef;fill-opacity:1;stroke:#000000;stroke-width:1;stroke-linecap:round;stroke-linejoin:round;stroke-dasharray:none;stroke-opacity:1"
         d="m 53.611629,122.50648 c -0.695256,-4.94432 0.81563,-8.17275 4.452593,-9.74757 l 3.91106,-0.90255 c 2.121646,0.41922 4.254476,0.92567 7.160252,7.4611 -8.371152,3.23663 -11.78463,3.1101 -15.523905,3.18902 z"
         id="path24"
         sodipodi:nodetypes="ccccc" /><path
         style="fill:#ffffff;fill-opacity:1;stroke:#000000;stroke-width:1;stroke-linecap:round;stroke-linejoin:round;stroke-dasharray:none;stroke-opacity:1"
         d="m 57.353006,109.47276 c -0.836035,-3.02694 3.919695,-2.98037 4.041942,-1.23385 l 0.510561,2.68044 c 0.225195,2.30732 -2.276147,2.27954 -2.747915,2.1196 -0.677639,-0.12736 -1.135429,-0.45937 -1.251479,-1.26866 z"
         id="path25"
         sodipodi:nodetypes="cccccc" /><path
         id="path26"
         style="fill:#fdf796;fill-opacity:1;stroke:#000000;stroke-width:1.00603;stroke-linecap:round;stroke-linejoin:round"
         transform="matrix(1,0,0.18536158,0.98267038,0,0)"
         d="m 45.668281,148.10345 c -0.202998,0.95573 -1.822158,1.16739 -2.853389,1.1798 -3.430941,0.0413 -6.542404,-4.23958 -6.542403,-10.05686 -10e-7,-5.81729 3.118877,-11.0094 6.542403,-11.0094 1.291011,0 3.641632,0.14549 3.482431,1.81802 -0.407234,4.27828 0.181754,14.25111 -0.629042,18.06844 z"
         sodipodi:nodetypes="ssssss" /><path
         style="display:inline;fill:#fad92b;fill-opacity:1;stroke:#000000;stroke-width:1;stroke-linecap:round;stroke-linejoin:round;stroke-dasharray:none;stroke-opacity:1"
         d="m 70.074482,123.47064 c 4.259196,2.00921 5.788834,4.37506 3.701567,8.46681 -1.016053,1.59902 -3.316941,2.16229 -4.424863,-0.51057 -0.408802,-1.30922 0.939049,-2.57926 1.446591,-3.78666 z"
         id="path7"
         sodipodi:nodetypes="ccccc" /><path
         id="path30"
         style="fill:#ffffff;stroke:#000000;stroke-linecap:round;stroke-linejoin:round"
         d="m 154.63735,105.71901 c 0.4164,4.18867 -2.20626,8.44476 -3.98796,7.47187 -2.41081,-1.29888 -6.78387,-0.10837 -10.12196,0.26513 -3.5717,0.39964 -5.62589,-4.66253 -5.6259,-7.85734 0,-4.88497 5.46431,-8.243321 10.34928,-8.243319 4.88496,3e-6 8.81118,2.575984 9.38654,8.363659 z"
         sodipodi:nodetypes="ssssss" /><ellipse
         style="fill:#ffffff;stroke:#000000;stroke-width:0.926872;stroke-linecap:round;stroke-linejoin:round;stroke-dasharray:none;stroke-opacity:1"
         id="path28"
         cx="130.48183"
         cy="108.62568"
         rx="10.521939"
         ry="9.9907312" /><circle
         style="fill:#000000;stroke:#000000;stroke-width:1;stroke-linecap:round;stroke-linejoin:round;stroke-dasharray:none;stroke-opacity:1"
         id="path29"
         cx="126.02987"
         cy="109.72028"
         r="1.3839141" /><ellipse
         style="fill:#000000;stroke:#000000;stroke-width:1;stroke-linecap:round;stroke-linejoin:round;stroke-dasharray:none;stroke-opacity:1"
         id="path31"
         cx="145.79234"
         cy="107.40377"
         rx="1.5644246"
         ry="1.684765" /><path
         style="fill:#fed41d;stroke:#000000;stroke-width:1.002;stroke-linecap:round;stroke-linejoin:round;stroke-dasharray:none;stroke-opacity:1"
         d="m 108.91243,121.22013 c 0.99449,-0.13503 2.42296,-0.30171 3.8784,1.21919"
         id="path1"
         sodipodi:nodetypes="cc" /><path
         style="fill:none;stroke:#000000;stroke-width:1.002;stroke-linecap:round;stroke-linejoin:round;stroke-dasharray:none;stroke-opacity:1"
         d="m 106.02648,137.00051 c 1.19661,3.04918 2.26359,6.39619 1.2764,9.14755"
         id="path32"
         sodipodi:nodetypes="cc" /><path
         style="fill:#fed41d;stroke:#000000;stroke-width:1.002;stroke-linecap:round;stroke-linejoin:round;stroke-dasharray:none;stroke-opacity:1"
         d="m 89.954419,149.28221 c 3.97123,0.87403 7.942461,1.34911 11.913691,1.0229"
         id="path33"
         sodipodi:nodetypes="cc" /><path
         style="fill:none;stroke:#000000;stroke-width:1.002;stroke-linecap:round;stroke-linejoin:round;stroke-dasharray:none;stroke-opacity:1"
         d="m 103.37237,162.33914 c 3.87364,1.98026 7.94589,3.83413 15.28322,3.61022"
         id="path34"
         sodipodi:nodetypes="cc" /><path
         style="fill:#fed41d;stroke:#000000;stroke-width:1.002;stroke-linecap:round;stroke-linejoin:round;stroke-dasharray:none;stroke-opacity:1"
         d="m 104.96687,188.72376 c 3.38356,-0.44727 6.2496,-1.32181 8.93528,-2.55722"
         id="path35"
         sodipodi:nodetypes="cc" /><path
         style="fill:#fed41d;stroke:#000000;stroke-width:1.002;stroke-linecap:round;stroke-linejoin:round;stroke-dasharray:none;stroke-opacity:1"
         d="m 119.79883,129.72691 -2.64749,7.58144"
         id="path36" /><path
         style="fill:#fed41d;stroke:#000000;stroke-width:1.002;stroke-linecap:round;stroke-linejoin:round;stroke-dasharray:none;stroke-opacity:1"
         d="m 125.21414,130.68963 -3.97123,8.60434"
         id="path37" /><path
         style="fill:#fed41d;stroke:#000000;stroke-width:1.002;stroke-linecap:round;stroke-linejoin:round;stroke-dasharray:none;stroke-opacity:1"
         d="m 131.11082,131.29133 -5.17463,8.90519"
         id="path38" /><path
         style="fill:none;stroke:#000000;stroke-width:1.002;stroke-linecap:round;stroke-linejoin:round;stroke-dasharray:none;stroke-opacity:1"
         d="m 52.949757,106.38088 c 2.896911,-1.98759 6.130624,-3.02091 9.988251,-2.28647"
         id="path39"
         sodipodi:nodetypes="cc" /><path
         style="fill:none;stroke:#000000;stroke-width:1.002;stroke-linecap:round;stroke-linejoin:round;stroke-dasharray:none;stroke-opacity:1"
         d="m 53.79214,101.80794 c 1.565886,-1.00101 3.3041,-1.78661 6.137357,-1.2034"
         id="path40"
         sodipodi:nodetypes="cc" /><path
         style="fill:none;stroke:#000000;stroke-width:1.002;stroke-linecap:round;stroke-linejoin:round;stroke-dasharray:none;stroke-opacity:1"
         d="M 48.497164,139.35413 C 46.036348,133.81848 46.503936,128.28282 47.53444,122.74717"
         id="path41"
         sodipodi:nodetypes="cc" /><path
         style="fill:none;stroke:#000000;stroke-width:1.002;stroke-linecap:round;stroke-linejoin:round;stroke-dasharray:none;stroke-opacity:1"
         d="m 44.405592,136.70665 c -1.780019,-3.24919 -1.691645,-6.49838 -1.083064,-9.74757"
         id="path42"
         sodipodi:nodetypes="cc" /><path
         style="fill:none;stroke:#000000;stroke-width:1.002;stroke-linecap:round;stroke-linejoin:round;stroke-dasharray:none;stroke-opacity:1"
         d="m 128.19257,146.45422 c 0.28849,1.88533 -2.21251,10.20887 -4.78353,15.16288 1.88041,1.54656 2.4907,3.65761 2.94834,5.83651"
         id="path43"
         sodipodi:nodetypes="ccc" /><path
         style="fill:none;stroke:#000000;stroke-width:1.002;stroke-linecap:round;stroke-linejoin:round;stroke-dasharray:none;stroke-opacity:1"
         d="m 154.27634,160.29336 c 1.24927,-0.42959 3.08498,-0.56945 4.73582,-0.19448 2.4513,0.84726 1.46773,2.94875 0.7111,3.48257 -1.22346,0.98616 -2.08528,0.81207 -3.28746,0.68012 -0.61406,1.5535 -1.60243,2.23868 -3.72388,2.40983"
         id="path44"
         sodipodi:nodetypes="ccccc" /><path
         style="fill:none;stroke:#000000;stroke-width:1.002;stroke-linecap:round;stroke-linejoin:round;stroke-dasharray:none;stroke-opacity:1"
         d="m 107.89853,125.51289 c 1.05197,-2.34583 2.95732,-2.0803 4.50996,-0.76584"
         id="path45"
         sodipodi:nodetypes="cc" /><path
         style="fill:none;stroke:#000000;stroke-width:1.002;stroke-linecap:round;stroke-linejoin:round;stroke-dasharray:none;stroke-opacity:1"
         d="m 110.85553,124.05566 c -2.00432,0.13864 -2.38516,4.90161 1.21259,3.49947"
         id="path46"
         sodipodi:nodetypes="cc" /><path
         style="fill:none;stroke:#000000;stroke-width:1.002;stroke-linecap:round;stroke-linejoin:round;stroke-dasharray:none;stroke-opacity:1"
         d="m 145.10039,121.15265 c 8.63682,0.27265 7.27761,-6.35674 5.62591,-7.88229"
         id="path47"
         sodipodi:nodetypes="cc" /><path
         style="fill:none;stroke:#000000;stroke-width:1.002;stroke-linecap:round;stroke-linejoin:round;stroke-dasharray:none;stroke-opacity:1"
         d="m 52.438858,131.85236 c 1.106215,1.28487 3.5952,1.61298 4.573775,-0.0638"
         id="path48"
         sodipodi:nodetypes="cc" /><path
         style="fill:none;stroke:#000000;stroke-width:1.002;stroke-linecap:round;stroke-linejoin:round;stroke-dasharray:none;stroke-opacity:1"
         d="m 52.779235,135.72411 c 1.086845,1.83875 3.927873,1.54942 4.680141,0.80839"
         id="path49"
         sodipodi:nodetypes="cc" /><path
         style="fill:none;stroke:#000000;stroke-width:1.002;stroke-linecap:round;stroke-linejoin:round;stroke-dasharray:none;stroke-opacity:1"
         d="m 109.66423,130.02284 c 1.81933,0.099 2.53752,-0.60413 3.25482,-1.19131"
         id="path50"
         sodipodi:nodetypes="cc" /></g></g></svg>
