<?xml version="1.0" encoding="UTF-8" standalone="no"?>
<!-- Created with Inkscape (http://www.inkscape.org/) -->

<svg
   width="210mm"
   height="297mm"
   viewBox="0 0 210 297"
   version="1.1"
   id="svg1"
   xml:space="preserve"
   inkscape:version="1.4 (86a8ad7, 2024-10-11)"
   sodipodi:docname="Logo Rolling Stones.svg"
   xmlns:inkscape="http://www.inkscape.org/namespaces/inkscape"
   xmlns:sodipodi="http://sodipodi.sourceforge.net/DTD/sodipodi-0.dtd"
   xmlns="http://www.w3.org/2000/svg"
   xmlns:svg="http://www.w3.org/2000/svg"><sodipodi:namedview
     id="namedview1"
     pagecolor="#ffffff"
     bordercolor="#eeeeee"
     borderopacity="1"
     inkscape:showpageshadow="0"
     inkscape:pageopacity="0"
     inkscape:pagecheckerboard="0"
     inkscape:deskcolor="#7e7e7e"
     inkscape:document-units="mm"
     inkscape:lockguides="true"
     inkscape:zoom="1.1313833"
     inkscape:cx="224.50394"
     inkscape:cy="494.52737"
     inkscape:window-width="1920"
     inkscape:window-height="1017"
     inkscape:window-x="-8"
     inkscape:window-y="-8"
     inkscape:window-maximized="1"
     inkscape:current-layer="layer1" /><defs
     id="defs1"><linearGradient
       id="swatch6"
       inkscape:swatch="solid"><stop
         style="stop-color:#000000;stop-opacity:1;"
         offset="0"
         id="stop6" /></linearGradient></defs><g
     inkscape:label="Bitmap"
     inkscape:groupmode="layer"
     id="layer1"
     style="opacity:1" /><g
     inkscape:groupmode="layer"
     id="layer2"
     inkscape:label="Vetor"
     style="opacity:1" /><g
     id="g13"><path
       style="fill:#ff3b28;fill-opacity:1;stroke:none;stroke-width:0.324;stroke-dasharray:none;stroke-opacity:1"
       d="m 105.47008,86.293699 c 5.72387,-7.710501 12.46073,-11.539539 20.98878,-12.083823 11.32018,1.347555 14.55639,10.495437 17.1443,20.268862 2.84471,8.791462 8.84013,15.291502 16.82361,20.345672 9.35048,4.54502 6.39953,6.15447 -0.52619,12.27756 -7.17786,7.8431 -12.63831,16.83115 -17.01318,26.54291 -5.99276,17.4358 -12.54013,39.4843 -31.57087,43.90689 -15.927588,25.57246 -29.561642,22.10887 -40.048223,21.39803 -21.834156,-6.00899 -29.202702,-22.95351 -30.109251,-32.74016 -1.585086,-11.68519 5.161257,-32.13736 13.914566,-44.19921 -2.061188,-6.80992 -5.13299,-10.58801 -8.095267,-14.69466 -6.008903,-4.69471 -5.056897,-7.72467 0.344913,-9.61535 6.148992,-3.50301 9.748731,-7.83875 13.645244,-12.45002 6.018517,-9.738175 7.592111,-14.669976 11.527551,-20.125992 3.850685,-4.823775 9.618019,-8.428764 15.709844,-10.660613 8.523178,-1.828612 14.197443,2.589717 17.264173,11.829904 z"
       id="path6"
       sodipodi:nodetypes="cccccccccccccccc" /><path
       style="display:inline;fill:#050306;fill-opacity:1;stroke:none;stroke-width:0.324001;stroke-dasharray:none;stroke-opacity:1"
       d="m 53.24681,122.28576 c 3.143752,3.46648 6.045628,6.80322 8.020095,11.5754 7.362281,-6.54974 15.193747,-12.36218 23.646876,-17.19773 l 3.768575,2.07779 c 0.83597,2.07929 3.692166,3.75801 5.161012,5.5289 l -11.161496,13.58299 c -5.816187,12.16573 -12.978889,25.05759 -11.079794,39.08505 4.010875,-19.66571 10.316237,-40.10478 28.938482,-50.60101 8.25288,0.16379 16.12788,-0.21291 22.98542,-8.76422 1.97158,-0.48359 2.78086,0.36551 4.63016,0.4134 l -0.57877,-7.77205 -57.959646,-2.6458 c -6.331322,4.38115 -11.593469,9.4038 -16.370914,14.71728 z"
       id="path7"
       sodipodi:nodetypes="ccccccccccccc" /><path
       style="fill:#050306;fill-opacity:1;stroke:none;stroke-width:0.324001;stroke-dasharray:none;stroke-opacity:1"
       d="m 139.67184,117.9815 c 4.34304,1.60368 8.59891,3.20633 13.38839,4.09252 -10.43871,10.32957 -20.27949,20.51475 -26.19212,35.42952 -1.1258,1.53053 -8.06097,25.78809 -12.16063,38.82047 -1.00511,0.77856 -2.84552,0.40786 -3.41705,1.27854 -4.29936,6.54981 -11.01074,16.84567 -21.722715,20.35335 l 0.467717,-1.34468 c 6.867598,-1.92156 14.500208,-9.89585 20.462598,-19.76103 6.78342,-15.01221 8.88355,-29.57476 15.4931,-44.19921 7.07644,-12.37389 21.98658,-27.61282 22.39194,-28.93996 -2.15376,-1.05306 -5.82774,-2.58667 -8.71123,-5.72952 z"
       id="path8"
       sodipodi:nodetypes="ccccscccccc" /><path
       style="fill:#fdfbfe;fill-opacity:1;stroke:none;stroke-width:0.324001;stroke-dasharray:none;stroke-opacity:1"
       d="m 69.572835,107.5748 c 4.193455,-2.46384 8.39298,-4.54932 13.505312,-5.78799 6.313452,0.39996 10.28787,5.57237 16.311615,6.84036 6.597948,-1.7273 12.732568,-5.70832 19.293308,-6.13879 8.63619,0.24213 17.11714,11.90862 19.18814,14.25773 -2.1354,3.57815 -6.36515,2.61585 -10.14731,1.34912 -0.48659,-0.16297 -2.25278,-3.00334 -3.07744,-4.20625 -4.75844,7.56124 -17.12748,9.76531 -21.98268,0.23385 -4.027498,5.05002 -17.721459,8.13256 -20.813387,-2.57244 -5.616085,2.36344 -9.62317,0.8314 -12.277558,-3.97559 z"
       id="path9"
       sodipodi:nodetypes="cccccscccc" /><path
       style="fill:#fcfff3;fill-opacity:1;stroke:none;stroke-width:0.324001;stroke-dasharray:none;stroke-opacity:1"
       d="m 80.200941,131.79412 c -8.663392,4.05853 -15.000197,12.4359 -21.077876,23.64688 -3.680341,7.13037 -6.155159,17.56349 -5.462849,24.8871 0.875802,1.25921 1.335769,2.66822 2.728487,3.72066 2.453505,-0.58656 3.638319,-1.91541 3.927366,-2.81117 2.963804,-22.00553 11.373997,-37.12858 18.359291,-45.11873 0.594632,-0.68017 2.447504,-2.76315 1.525581,-4.32474 z"
       id="path10"
       sodipodi:nodetypes="cccccsc" /><path
       style="fill:#fefefe;fill-opacity:1;stroke:none;stroke-width:0.324001;stroke-dasharray:none;stroke-opacity:1"
       d="m 124.02207,131.4634 c -9.75811,5.15692 -17.86528,20.6322 -25.135138,41.34069 -1.086015,6.78848 -7.544235,16.61566 -9.094951,21.66252 1.265017,2.1663 2.561926,4.14125 4.134069,4.4648 8.62452,-0.92614 9.6519,-13.24798 12.40221,-22.98543 4.43452,-15.27666 9.48589,-32.02482 19.01672,-42.82896 -0.2475,-0.79304 -0.63578,-1.41011 -1.32291,-1.65362 z"
       id="path11"
       sodipodi:nodetypes="ccccccc" /><path
       style="fill:#fefefe;fill-opacity:1;stroke:none;stroke-width:0.324001;stroke-dasharray:none;stroke-opacity:1"
       d="m 82.433339,86.898132 c 2.606935,0.286721 4.19559,-0.875534 6.42493,-1.09406 3.576208,1.356175 7.343587,4.528472 10.335172,0.330727 1.773969,-2.013952 0.656078,-4.784922 -1.191786,-6.774857 -4.369347,-2.58942 -8.265673,-1.66382 -12.013017,0.262228 0.110602,0.07373 -2.93564,2.711701 -3.6814,4.776319 -0.445952,1.234607 -0.429976,2.763312 0.126101,2.499643 z"
       id="path12"
       sodipodi:nodetypes="cccccsc" /><path
       style="fill:#fefefe;fill-opacity:1;stroke:none;stroke-width:0.324001;stroke-dasharray:none;stroke-opacity:1"
       d="m 116.41539,84.748417 c 2.12065,3.626563 4.77034,0.87874 7.35864,0.165364 2.62143,1.220664 4.92598,3.200802 7.27596,2.315078 2.41061,-0.621485 3.30351,-2.757142 2.64581,-5.374291 -1.25071,-2.789457 -4.56281,-3.400552 -7.93742,-3.555299 -2.53942,0.391469 -5.12156,1.029052 -6.86255,2.232398 l -2.31508,2.563122 z"
       id="path13"
       sodipodi:nodetypes="cccccccc" /></g></svg>
