<?xml version="1.0" encoding="UTF-8" standalone="no"?>
<!-- Created with Inkscape (http://www.inkscape.org/) -->

<svg
   width="210mm"
   height="297mm"
   viewBox="0 0 210 297"
   version="1.1"
   id="svg1"
   xml:space="preserve"
   inkscape:version="1.3.2 (091e20e, 2023-11-25, custom)"
   sodipodi:docname="sonic_n1.svg"
   xmlns:inkscape="http://www.inkscape.org/namespaces/inkscape"
   xmlns:sodipodi="http://sodipodi.sourceforge.net/DTD/sodipodi-0.dtd"
   xmlns="http://www.w3.org/2000/svg"
   xmlns:svg="http://www.w3.org/2000/svg"><sodipodi:namedview
     id="namedview1"
     pagecolor="#ffffff"
     bordercolor="#000000"
     borderopacity="0.25"
     inkscape:showpageshadow="2"
     inkscape:pageopacity="0.0"
     inkscape:pagecheckerboard="0"
     inkscape:deskcolor="#d1d1d1"
     inkscape:document-units="mm"
     inkscape:zoom="0.5"
     inkscape:cx="-257"
     inkscape:cy="621"
     inkscape:window-width="1600"
     inkscape:window-height="829"
     inkscape:window-x="-8"
     inkscape:window-y="-8"
     inkscape:window-maximized="1"
     inkscape:current-layer="layer1"
     showgrid="false" /><defs
     id="defs1" /><g
     inkscape:label="bmp"
     inkscape:groupmode="layer"
     id="layer1"
     style="display:inline;opacity:1" /><g
     inkscape:groupmode="layer"
     id="layer4"
     inkscape:label="braco2"
     style="display:inline"
     sodipodi:insensitive="true"><path
       style="fill:#ffffff;stroke:#000000;stroke-width:0.499999;stroke-linecap:round;stroke-linejoin:round"
       d="m 137.14644,143.10829 c 0.85912,4.23784 3.57147,5.71695 6.86009,6.94278 -0.91441,3.96218 1.26526,8.68478 3.95305,10.47096 3.23604,1.86796 6.47412,0.54548 8.37004,-0.72574 0.63056,-0.58284 1.26989,-1.12422 1.707,-2.62219 l 4.04086,0.18945 c 4.43077,-0.42094 3.07629,-6.37148 2.32557,-7.10165 2.0614,-2.71851 0.74653,-4.95515 -0.47934,-7.20449 -0.64831,-0.84865 -1.0046,-1.75905 -1.09792,-2.72502 -0.59274,-1.79008 -1.29472,-3.54409 -4.75434,-4.38733 -1.36724,-0.12391 -2.67144,-0.34463 -4.54444,0.30838 -0.90039,-1.96481 -3.21481,-5.6416 -8.38704,-3.88029 -3.73297,0.89044 -7.4975,4.99206 -7.99353,10.73514 z"
       id="path27"
       sodipodi:nodetypes="ccccccccccccc" /><ellipse
       style="fill:none;stroke:#000000;stroke-width:0.570808;stroke-linecap:round;stroke-linejoin:round"
       id="path34"
       cx="-189.20174"
       cy="-77.318985"
       rx="2.8425314"
       ry="6.3975081"
       transform="matrix(-0.93006166,-0.36740346,0.41384964,-0.91034525,0,0)" /><path
       style="fill:#f8c68b;fill-opacity:1;stroke:#000000;stroke-width:0.499999;stroke-linecap:round;stroke-linejoin:round;stroke-dasharray:none;stroke-opacity:1"
       d="m 115.94484,151.08834 c 4.07026,-7.94361 15.81159,-16.55918 27.78571,-6.43914 1.23583,-0.48053 2.43288,-2.83845 2.80958,-4.39107 -3.51849,-3.01433 -7.508,-5.25435 -14.47052,-5.95927 -14.90804,1.10496 -19.5485,11.76445 -20.2938,14.78703 1.17661,3.72882 3.3467,2.63975 4.16903,2.00245 z"
       id="path22-1"
       sodipodi:nodetypes="cccccc"
       inkscape:transform-center-x="16.191398"
       inkscape:transform-center-y="6.4516422" /><path
       style="fill:none;stroke:#000000;stroke-width:0.499999;stroke-linecap:round;stroke-linejoin:round"
       d="m 158.04304,156.99879 c 0.6511,-2.9353 0.85565,-5.43705 -2.51212,-7.7837 -4.30081,-2.51642 -7.92643,1.20214 -7.69073,2.76085 -0.0173,1.91641 0.46061,5.5291 2.47956,6.13372"
       id="path28"
       sodipodi:nodetypes="cccc" /><path
       style="fill:none;stroke:#000000;stroke-width:0.499999;stroke-linecap:round;stroke-linejoin:round"
       d="m 164.58269,150.27223 c -1.73485,-1.25179 -3.54759,-1.87692 -8.3025,-0.58186"
       id="path29"
       sodipodi:nodetypes="cc" /><path
       style="fill:none;stroke:#000000;stroke-width:0.499999;stroke-linecap:round;stroke-linejoin:round"
       d="m 163.0646,141.63653 c -2.62325,-0.70163 -5.36906,-1.15924 -8.16454,0.59661"
       id="path30"
       sodipodi:nodetypes="cc" /><path
       style="fill:none;stroke:#000000;stroke-width:0.499999;stroke-linecap:round;stroke-linejoin:round"
       d="m 155.33827,149.16642 c -2.59588,-1.95067 -1.83246,-5.48294 -0.49542,-6.8777"
       id="path31"
       sodipodi:nodetypes="cc" /><path
       style="fill:none;stroke:#000000;stroke-width:0.499999;stroke-linecap:round;stroke-linejoin:round"
       d="m 153.4039,136.08447 c 1.29961,8.38789 -4.36938,12.82752 -9.50063,13.82388"
       id="path32"
       sodipodi:nodetypes="cc" /><path
       style="fill:none;stroke:#000000;stroke-width:0.499999;stroke-linecap:round;stroke-linejoin:round"
       d="m 154.91324,142.11044 c -1.43503,-1.7845 -1.39421,-5.96334 -1.39421,-5.96334"
       id="path33"
       sodipodi:nodetypes="cc" /></g><g
     inkscape:groupmode="layer"
     id="layer5"
     inkscape:label="perna1"><path
       style="fill:#f54841;fill-opacity:1;stroke:#000000;stroke-width:0.499999;stroke-linecap:round;stroke-linejoin:round"
       d="m 93.842235,195.43044 c 1.653058,5.62675 0.474081,10.4275 -3.318645,14.4659 -15.197393,-13.05488 -40.040144,-19.85186 -50.885901,-21.35847 6.846341,-8.57351 22.18671,-10.15628 39.39828,-3.40374 z"
       id="path39"
       sodipodi:nodetypes="ccccc" /><path
       style="fill:#426eab;fill-opacity:1;stroke:#000000;stroke-width:0.499999;stroke-linecap:round;stroke-linejoin:round"
       d="m 102.94724,165.9881 c -7.751077,-0.67018 -16.144,5.98889 -17.614351,15.57211 l 6.211824,2.63789 c -0.50606,-9.5827 8.39024,-11.29471 15.572107,-13.18949 0.53095,-3.04551 -1.55739,-4.2201 -4.16958,-5.02051 z"
       id="path35"
       sodipodi:nodetypes="ccccc" /><g
       id="g38"
       style="fill:#ffffff"
       transform="translate(-5.2916667,1.5875)"><path
         style="fill:#ffffff;stroke:#000000;stroke-width:0.499999;stroke-linecap:round;stroke-linejoin:round"
         d="m 84.327636,183.63173 c 0.299521,-0.49833 0.691252,-0.79379 1.191311,-0.85094 0.567463,-5.53576 9.331249,-4.92822 14.841513,-0.98071 3.3885,2.87948 3.61437,5.30498 0.98587,7.7031 1.19394,3.93697 -0.95714,4.69789 -2.247673,4.4051 -4.47692,-1.6874 -6.9529,-5.61093 -11.42745,-8.51451 -1.52622,-0.99904 -2.34165,-1.2873 -3.343571,-1.76204 z"
         id="path36"
         sodipodi:nodetypes="ccccccc" /><path
         style="fill:#ffffff;stroke:#000000;stroke-width:0.499999;stroke-linecap:round;stroke-linejoin:round"
         d="m 85.592076,182.79699 c 6.017666,-1.7413 9.307861,1.03476 12.846332,3.39962"
         id="path37"
         sodipodi:nodetypes="cc" /><path
         style="fill:#ffffff;stroke:#000000;stroke-width:0.499999;stroke-linecap:round;stroke-linejoin:round"
         d="m 101.32658,189.50597 c -0.15806,-0.40353 -0.40326,-0.84027 -0.67692,-1.12819"
         id="path38"
         sodipodi:nodetypes="cc" /></g><path
       style="fill:#a3392b;fill-opacity:1;stroke:#000000;stroke-width:0.499999;stroke-linecap:round;stroke-linejoin:round"
       d="m 39.676151,188.58177 c 18.137338,2.79143 35.075468,9.34215 50.745202,21.29896 C 71.185725,208.6004 53.56409,202.27397 39.676151,188.58177 Z"
       id="path40"
       sodipodi:nodetypes="ccc" /><path
       style="fill:#ffffff;stroke:#000000;stroke-width:0.499999;stroke-linecap:round;stroke-linejoin:round"
       d="m 72.297395,182.95937 c 4.710845,5.79879 3.964549,11.59757 3.836458,17.39636 l 6.879166,4.16718 c 0.291394,-5.17415 1.525406,-9.46585 -2.116666,-18.32239 -2.957566,-1.53662 -5.817737,-2.58626 -8.598958,-3.24115 z"
       id="path41"
       sodipodi:nodetypes="ccccc" /></g><g
     inkscape:groupmode="layer"
     id="layer2"
     inkscape:label="corpo"
     style="display:inline"><path
       style="display:inline;fill:#4269a2;fill-opacity:1;stroke:#000000;stroke-width:0.499999;stroke-linecap:round;stroke-linejoin:round;stroke-dasharray:none;stroke-opacity:1"
       d="M 66.527232,116.12333 C 81.160155,87.465457 109.2424,78.156532 139.36725,89.914533 c 5.89561,2.496076 9.04181,4.992151 2.04224,7.488227 -5.70991,2.68101 -10.73568,7.18642 -15.48701,12.42365 7.61063,3.31974 14.86335,7.40642 20.25225,15.48701 0.96723,1.68738 2.58753,4.99481 -2.04225,4.59505 -5.96841,-0.92089 -12.08403,0.80792 -18.21,2.72299 5.46737,4.86371 8.50666,9.96378 11.10167,15.14664 0.55781,1.4448 1.50456,3.56995 -2.9327,2.38262 -3.92868,-0.28523 -7.95729,-1.36986 -11.7429,-0.51056 5.72722,3.03232 10.68054,6.72177 12.81298,11.89421 0.6657,1.58423 1.02171,3.46225 -1.41045,3.42261 -2.19623,-0.90419 -3.77065,-2.60783 -6.97767,-2.21243 -4.80251,14.32157 -15.27638,16.46596 -27.400097,10.80687 L 93.586957,157.64895 74.696205,150.33091 C 64.451344,139.17015 63.732204,131.97885 62.924106,126.67492 c -0.889441,-7.20043 1.171711,-9.20219 3.603126,-10.55159 z"
       id="path2"
       sodipodi:nodetypes="cccccccccccccccccc" /><path
       style="display:inline;fill:#3f68a6;fill-opacity:1;stroke:#000000;stroke-width:0.499999;stroke-linecap:round;stroke-linejoin:round;stroke-dasharray:none;stroke-opacity:1"
       d="m 65.676296,119.18669 c -2.525142,-3.50144 -5.664106,-10.28064 -6.467103,-15.40192 -0.519562,-2.30752 0.809487,-2.56104 2.297522,-2.6379 5.220913,-0.52716 10.233635,0.81938 15.231735,2.29753 z"
       id="path3"
       sodipodi:nodetypes="ccccc" /><path
       style="display:inline;fill:#ffffff;stroke:#000000;stroke-width:0.499999;stroke-linecap:round;stroke-linejoin:round;stroke-dasharray:none;stroke-opacity:1"
       d="m 75.938072,149.72648 c -5.758327,-6.13504 -9.483097,-13.88291 -10.589951,-23.70705 -0.282609,-1.87397 0.540691,-2.75661 1.925447,-0.72204 l 10.228929,16.84764 c 2.017264,2.6753 3.959249,1.5802 4.542849,-0.84238 2.17115,-8.2151 4.599112,-16.36958 8.546304,-22.14262 3.394278,-4.42134 6.208613,-3.12607 8.812793,0.24068 3.940617,6.39422 3.265587,21.87001 2.001987,23.98673 -2.425787,4.06356 -25.781346,9.26101 -25.468358,6.33904 z"
       id="path4"
       sodipodi:nodetypes="cccccccsc" /><path
       id="path8"
       style="fill:#000000;stroke:#000000;stroke-width:0.448512;stroke-linecap:round;stroke-linejoin:round"
       d="m 87.628908,138.3049 c 0.80155,3.73353 0.594777,6.97085 -0.461842,7.23075 -1.056619,0.25991 -2.562964,-2.55602 -3.364514,-6.28955 -0.175283,-0.81645 -0.298693,-1.60956 -0.382847,-2.35219 -0.137205,-1.21074 1.342873,-4.70558 1.386223,-4.69805 0.198868,0.0346 -0.134059,-0.17109 0.08552,-0.0214 0.964158,0.65726 2.084595,3.08949 2.737458,6.13045 z"
       sodipodi:nodetypes="sssssss" /><path
       id="path9"
       style="fill:#ffffff;stroke:#000000;stroke-width:0.191976;stroke-linecap:round;stroke-linejoin:round"
       d="m 85.367744,136.53822 c 0.302219,1.81415 0.224258,3.38719 -0.174134,3.51347 -0.398392,0.12629 -0.966349,-1.24198 -1.268567,-3.05614 -0.06609,-0.39671 -0.09394,-0.78423 -0.144352,-1.14294 -0.11556,-0.82231 0.524189,-2.26614 0.522667,-2.28282 -0.01011,-0.11084 -0.05055,-0.0832 0.03224,-0.0104 0.363529,0.31937 0.785983,1.50121 1.03214,2.97884 z"
       sodipodi:nodetypes="ssssssss" /><path
       id="path10"
       style="fill:#000000;stroke:#000000;stroke-width:0.52623;stroke-linecap:round;stroke-linejoin:round"
       d="m 76.123415,139.69394 c 1.700177,2.60493 1.975507,4.96126 1.341449,5.23496 -0.634059,0.2737 -2.127964,-1.77449 -3.336728,-4.57475 -1.208764,-2.80026 -1.836193,-5.72202 -1.191024,-5.47564 0.543804,0.20766 1.447032,2.1506 3.186303,4.81543 z"
       sodipodi:nodetypes="sssss" /><ellipse
       style="fill:#ffffff;stroke:#000000;stroke-width:0.488494;stroke-linecap:round;stroke-linejoin:round;stroke-dasharray:none;stroke-opacity:1"
       id="path11"
       cx="-0.96950698"
       cy="159.74089"
       rx="0.5282743"
       ry="2.5185063"
       transform="matrix(0.72127265,-0.69265126,0.47966623,0.87745103,0,0)" /><path
       style="fill:#f7c58a;fill-opacity:1;stroke:#000000;stroke-width:0.499999;stroke-linecap:round;stroke-linejoin:round;stroke-dasharray:none;stroke-opacity:1"
       d="m 96.863053,107.31615 c -1.76614,-0.93721 -1.83299,-1.74056 5.938927,-8.626664 1.39536,-1.185342 3.24013,-2.900038 4.65521,1.861734 0.65621,1.95816 2.9899,13.57168 -1.42531,11.25361 -2.84565,-1.80173 -5.72243,-3.1239 -9.168827,-4.48868 z"
       id="path14"
       sodipodi:nodetypes="ccccc" /><path
       style="fill:none;stroke:#000000;stroke-width:0.499999;stroke-linecap:round;stroke-linejoin:round;stroke-dasharray:none;stroke-opacity:1"
       d="m 91.341637,105.74208 c 3.874776,-4.9538 8.323316,-8.071529 12.996753,-10.469613 1.87086,-0.767289 3.90157,-1.836533 6.01702,3.008508 2.08574,5.614325 1.95759,10.299285 2.34664,15.403565"
       id="path15"
       sodipodi:nodetypes="cccc" /><path
       style="fill:none;stroke:#000000;stroke-width:0.499999;stroke-linecap:round;stroke-linejoin:round;stroke-dasharray:none;stroke-opacity:1"
       d="m 86.524199,116.4637 c 1.531683,-2.32589 3.517196,-3.63066 5.956543,-3.9143"
       id="path16"
       sodipodi:nodetypes="cc" /><path
       style="fill:none;stroke:#000000;stroke-width:0.499999;stroke-linecap:round;stroke-linejoin:round;stroke-dasharray:none;stroke-opacity:1"
       d="m 123.45477,111.52828 2.63789,-1.82221"
       id="path17"
       sodipodi:nodetypes="cc" /><path
       style="fill:none;stroke:#000000;stroke-width:0.499999;stroke-linecap:round;stroke-linejoin:round;stroke-dasharray:none;stroke-opacity:1"
       d="m 124.13552,133.31221 c 0.77624,-0.3992 1.41068,-0.56206 2.07277,-0.77101"
       id="path18"
       sodipodi:nodetypes="cc" /><path
       style="fill:none;stroke:#000000;stroke-width:0.499999;stroke-linecap:round;stroke-linejoin:round;stroke-dasharray:none;stroke-opacity:1"
       d="m 116.76247,150.96697 c 1.5389,-0.64393 3.52803,-1.32006 5.58608,-1.31681"
       id="path19"
       sodipodi:nodetypes="cc" /><path
       style="fill:none;stroke:#000000;stroke-width:0.499999;stroke-linecap:round;stroke-linejoin:round;stroke-dasharray:none;stroke-opacity:1"
       d="m 126.67889,158.95027 c 0.30524,1.32797 0.13965,2.65594 -0.0611,3.95383"
       id="path20"
       sodipodi:nodetypes="cc" /><path
       style="fill:#f7c48b;fill-opacity:1;stroke:#000000;stroke-width:0.499999;stroke-linecap:round;stroke-linejoin:round;stroke-dasharray:none;stroke-opacity:1"
       d="m 94.60808,162.32909 c -0.255624,-1.28816 -0.462478,-2.01671 1.191313,-2.02097 8.272877,-1.09246 10.900767,-4.3892 19.060927,0.82966 4.03272,2.80351 3.55468,6.72276 2.723,9.105 -1.18769,2.87172 -4.54182,6.17322 -9.01991,6.04164 -3.70203,-0.93669 -5.82376,-0.87407 -10.444087,-3.10717 -2.05411,-2.00208 -2.8776,-7.51052 -3.511243,-10.84816 z"
       id="path21"
       sodipodi:nodetypes="ccccccc" /></g><g
     inkscape:groupmode="layer"
     id="layer6"
     inkscape:label="perna2"
     style="display:inline"><path
       style="fill:#f0483f;fill-opacity:1;stroke:#000000;stroke-width:0.499999;stroke-linecap:round;stroke-linejoin:round"
       d="m 131.47015,164.16755 0.46772,-4.58367 c 1.02762,-2.84325 2.58133,-3.47693 4.49013,-2.61924 9.33723,5.92563 17.84272,13.06687 22.63772,25.63114 0.21466,1.48331 0.10088,2.69292 -1.77734,2.43216 -6.01802,0.26749 -12.03603,-2.39097 -18.05405,-5.61266 z"
       id="path47"
       sodipodi:nodetypes="ccccccc" /><path
       style="fill:#ffffff;stroke:#000000;stroke-width:0.499999;stroke-linecap:round;stroke-linejoin:round"
       d="m 122.15667,172.01597 c 0.34848,-1.67948 3.6566,-3.59527 4.04225,-5.88075 0.15718,-0.93152 0.64219,-2.34229 1.61019,-2.33808 2.34276,-0.36364 10.97859,1.72269 12.42005,13.93671 -0.11361,1.58995 -0.96793,2.33338 -2.3151,2.51354 -0.82166,6.58476 -8.97479,3.28989 -10.25261,1.7198 -4.68813,-2.72147 -5.56691,-7.09182 -5.50478,-9.95122 z"
       id="path43"
       sodipodi:nodetypes="csccccc" /><ellipse
       style="fill:none;stroke:#000000;stroke-width:0.428439;stroke-linecap:round;stroke-linejoin:round"
       id="path46"
       cx="-30.579165"
       cy="221.09969"
       rx="2.9678106"
       ry="6.2690411"
       transform="matrix(0.81838092,-0.57467614,0.69426666,0.71971786,0,0)" /><path
       style="fill:#3e6ca8;fill-opacity:1;stroke:#000000;stroke-width:0.499999;stroke-linecap:round;stroke-linejoin:round"
       d="m 116.44406,175.51505 c 1.59048,2.68273 3.13326,6.0759 9.89448,6.38599 2.59868,-0.0953 4.26471,-2.36683 5.82083,-4.89479 -0.85726,-1.615 -2.41402,-3.01081 -4.23334,-4.10105 -1.45046,1.76677 -2.34977,2.68982 -4.49791,0.79376 l -1.69905,-1.79454 c -1.35302,1.62815 -3.3194,2.77009 -5.28501,3.61063 z"
       id="path42"
       sodipodi:nodetypes="ccccccc" /><path
       style="fill:none;stroke:#000000;stroke-width:0.499999;stroke-linecap:round;stroke-linejoin:round"
       d="m 126.23166,166.45939 c 2.72405,0.19695 3.64623,1.4879 4.67722,2.71278"
       id="path44"
       sodipodi:nodetypes="cc" /><path
       style="fill:none;stroke:#000000;stroke-width:0.499999;stroke-linecap:round;stroke-linejoin:round"
       d="m 137.9247,180.35072 c 0.0313,-0.77176 0.0108,-1.53489 -0.3274,-2.24506"
       id="path45"
       sodipodi:nodetypes="cc" /><path
       style="fill:#ffffff;stroke:#000000;stroke-width:0.499999;stroke-linecap:round;stroke-linejoin:round"
       d="m 140.26331,177.8718 c 4.13561,0.75014 6.87939,-1.53644 9.68184,-3.695 l 3.08696,3.78854 c -2.56381,1.8688 -5.36739,3.44989 -9.16734,3.83532 l -4.44335,-2.38538 z"
       id="path48"
       sodipodi:nodetypes="cccccc" /><path
       style="fill:#d6c43a;fill-opacity:1;stroke:#000000;stroke-width:0.499999;stroke-linecap:round;stroke-linejoin:round"
       d="m 149.89838,175.15901 c -0.48278,-0.60024 -0.88599,-1.20049 -0.63143,-1.80073 0.67269,-1.28217 1.77585,-2.6969 3.06358,-1.6838 1.83114,1.57466 3.04713,3.52351 3.27405,4.72399 0.0909,0.40536 -0.19468,0.81072 -0.46772,1.21608 -0.60099,0.80542 -0.95081,0.77359 -1.37978,1.0056 -0.52229,0.16228 -1.04458,-0.20086 -1.56687,-0.65481 z"
       id="path49"
       sodipodi:nodetypes="cccccccc" /><rect
       style="fill:#000000;stroke:#000000;stroke-width:0.499999;stroke-linecap:round;stroke-linejoin:round"
       id="rect49"
       width="1.1693041"
       height="4.723989"
       x="-2.4680116"
       y="230.01448"
       rx="0.5"
       ry="0.5"
       transform="rotate(-41.583371)" /></g><g
     inkscape:groupmode="layer"
     id="layer7"
     inkscape:label="braco1"
     style="display:inline"><path
       style="display:inline;fill:#ffffff;stroke:#000000;stroke-width:0.499999;stroke-linecap:round;stroke-linejoin:round;stroke-dasharray:none;stroke-opacity:1"
       d="m 82.420199,173.50084 c -4.226049,2.55687 -6.187629,1.77664 -8.418952,1.39392 -2.904916,-1.44537 -2.93106,-3.345 -3.933929,-5.0905 -2.239571,0.32205 -4.062879,-0.63636 -6.308567,-1.90277 -1.458018,-0.82704 -2.202135,-2.34105 -1.964788,-3.32055 0.501078,-1.95628 -0.132875,-2.4667 -0.438229,-3.08236 -2.119751,-3.38991 -1.049621,-3.95064 -0.517867,-5.6881 1.377347,-3.03606 2.333004,-2.82522 2.067461,-6.40122 0.601391,-2.15777 1.845078,-1.78775 2.992017,-1.7985 2.239949,-0.22402 4.47983,-0.46575 6.726595,1.08032 2.469505,-1.42069 4.916949,-1.60806 7.320605,0.65257 l 1.199817,2.20782 0.536443,6.72038 c 3.794539,1.1313 6.22595,3.85852 5.816786,7.89135 -1.006098,2.78576 -2.786455,5.18813 -5.077392,7.33764 z"
       id="path23"
       sodipodi:nodetypes="ccccccccccccccc" /><ellipse
       style="display:inline;fill:none;stroke:#000000;stroke-width:0.542395;stroke-linecap:round;stroke-linejoin:round;stroke-dasharray:none;stroke-opacity:1"
       id="path25"
       cx="165.51732"
       cy="96.471375"
       rx="3.0518384"
       ry="6.0046649"
       transform="matrix(0.83487168,0.55044462,-0.60142964,0.79892577,0,0)" /><path
       style="display:inline;fill:#f7c48b;fill-opacity:1;stroke:#000000;stroke-width:0.499999;stroke-linecap:round;stroke-linejoin:round;stroke-dasharray:none;stroke-opacity:1"
       d="m 107.79851,155.95339 c -3.744,8.10249 -13.209282,17.22625 -25.584895,7.60133 -1.845894,-0.24055 -4.146946,1.82097 -4.46023,3.38761 3.613365,3.59295 7.630743,6.02086 14.61618,6.44215 14.850805,-1.71008 19.054105,-12.54941 19.675905,-15.59978 -1.3272,-3.67792 -3.45122,-2.50153 -4.24696,-1.83131 z"
       id="path22"
       sodipodi:nodetypes="cccccc" /><path
       style="display:inline;fill:none;stroke:#000000;stroke-width:0.499999;stroke-linecap:round;stroke-linejoin:round;stroke-dasharray:none;stroke-opacity:1"
       d="m 70.152411,169.80393 c 0.593446,-7.13662 5.022945,-11.12311 11.568979,-11.48667"
       id="path24"
       sodipodi:nodetypes="cc" /><path
       style="display:inline;fill:none;stroke:#000000;stroke-width:0.499999;stroke-linecap:round;stroke-linejoin:round;stroke-dasharray:none;stroke-opacity:1"
       d="m 69.834279,149.58352 c 1.576609,-0.75293 3.805837,-0.89094 6.019986,0.75906"
       id="path26"
       sodipodi:nodetypes="cc" /></g><g
     inkscape:groupmode="layer"
     id="layer8"
     inkscape:label="focinho"><g
       id="g50"
       style="display:inline"
       transform="translate(-5.2916667,1.5875)"><path
         style="fill:#f8c68b;fill-opacity:1;stroke:#000000;stroke-width:0.499999;stroke-linecap:round;stroke-linejoin:round;stroke-dasharray:none;stroke-opacity:1"
         d="m 83.561798,152.53006 c -5.195112,-3.91665 -2.199012,-5.66586 2.370611,-7.18137 2.460278,-0.81594 6.195926,-0.15052 8.973882,0.87841 3.849568,0.83317 5.483049,-1.4979 7.670249,-3.06978 3.25982,-3.04329 5.01926,-5.49708 7.70461,-6.4413 3.58911,-1.53736 9.0123,1.88709 8.33916,6.92178 -2.25872,11.79829 -24.207949,16.1537 -35.058512,8.89226 z"
         id="path7"
         sodipodi:nodetypes="csccccc" /><path
         style="fill:none;stroke:#000000;stroke-width:0.499999;stroke-linecap:round;stroke-linejoin:round;stroke-dasharray:none;stroke-opacity:1"
         d="m 107.89853,144.74401 c 1.67739,-0.73864 1.99031,-1.97346 2.46772,-3.14846"
         id="path12"
         sodipodi:nodetypes="cc" /><path
         style="fill:none;stroke:#000000;stroke-width:0.499999;stroke-linecap:round;stroke-linejoin:round;stroke-dasharray:none;stroke-opacity:1"
         d="m 108.9622,140.74462 c 1.05034,0.3791 2.0671,0.90927 2.89318,2.29753"
         id="path13"
         sodipodi:nodetypes="cc" /><g
         id="g49"><ellipse
           style="display:inline;fill:#000000;stroke:#000000;stroke-width:0.480306;stroke-linecap:round;stroke-linejoin:round;stroke-dasharray:none;stroke-opacity:1"
           id="path5"
           cx="79.604942"
           cy="147.467"
           rx="7.0300584"
           ry="1.8819029" /><ellipse
           style="display:inline;fill:#ffffff;stroke:#000000;stroke-width:0.499999;stroke-linecap:round;stroke-linejoin:round;stroke-dasharray:none;stroke-opacity:1"
           id="path6"
           cx="77.860535"
           cy="147.04153"
           rx="3.5739262"
           ry="0.8509348" /></g></g></g></svg>
